<svg width="75" height="71" viewBox="0 0 75 71" fill="none" xmlns="http://www.w3.org/2000/svg">
<circle cx="38.5" cy="28.5" r="28.5" fill="url(#paint0_linear)"/>
<circle cx="38.5" cy="28.5" r="28" stroke="#263238" stroke-opacity="0.2"/>
<g clip-path="url(#clip0)">
<path d="M38.5 19.1887C32.8382 19.1887 28.25 23.5531 28.25 28.9387C28.25 34.3244 32.8382 38.6887 38.5 38.6887C44.1606 38.6887 48.75 34.3232 48.75 28.9387C48.75 23.5543 44.1606 19.1887 38.5 19.1887ZM44.3361 33.6979C41.5737 36.7643 36.7216 37.119 33.498 34.4901C30.2731 31.8625 29.9015 27.2459 32.6652 24.1807C35.4263 21.1131 40.2797 20.7597 43.5033 23.3885C46.7256 26.0149 47.0985 30.6328 44.3361 33.6979ZM38.5 24.0637C38.8536 24.0637 39.1406 24.3367 39.1406 24.6731C39.1406 25.0095 38.8536 25.2825 38.5 25.2825C36.377 25.2825 34.6575 26.9193 34.6562 28.9375V28.9399C34.6562 29.2751 34.3692 29.5493 34.0156 29.5493C33.662 29.5493 33.375 29.2751 33.375 28.9399V28.9375C33.3763 26.2465 35.6697 24.0637 38.5 24.0637ZM55.7866 18.0199L50.2337 17.1388L48.4745 12.9536C47.8864 11.5581 46.4848 10.6562 44.9062 10.6562H32.0938C30.5153 10.6562 29.1136 11.5581 28.5242 12.9548L26.7663 17.1388L21.2147 18.0199C19.3517 18.3137 18 19.8298 18 21.625V39.9062C18 41.9221 19.7246 43.5625 21.8438 43.5625H55.1562C57.2754 43.5625 59 41.9221 59 39.9062V21.625C59 19.8298 57.6483 18.3137 55.7866 18.0199ZM56.4375 39.9062C56.4375 40.5802 55.8648 41.125 55.1562 41.125H21.8438C21.1352 41.125 20.5625 40.5802 20.5625 39.9062V21.625C20.5625 21.029 21.0161 20.5208 21.6336 20.4233L28.6087 19.3179L30.9035 13.8603C31.0995 13.3984 31.5697 13.0938 32.0938 13.0938H44.9062C45.429 13.0938 45.8992 13.3972 46.0952 13.8603L48.39 19.3179L55.3664 20.4233C55.9839 20.5208 56.4375 21.029 56.4375 21.625V39.9062Z" fill="white" fill-opacity="0.15"/>
<path d="M32.6464 200.354C32.8417 200.549 33.1583 200.549 33.3535 200.354L36.5355 197.172C36.7308 196.976 36.7308 196.66 36.5355 196.464C36.3403 196.269 36.0237 196.269 35.8284 196.464L33 199.293L30.1716 196.464C29.9763 196.269 29.6597 196.269 29.4645 196.464C29.2692 196.66 29.2692 196.976 29.4645 197.172L32.6464 200.354ZM32.5 43L32.5 200L33.5 200L33.5 43L32.5 43Z" fill="black"/>
</g>
<path d="M20.5918 23.39L23.1644 30.999L25.7507 23.39H27.8061L24.4031 33H21.9393L18.5364 23.39H20.5918ZM35.9335 28.9436C35.9335 29.1342 35.9108 29.352 35.8654 29.597H30.339C30.3662 30.2685 30.5477 30.7631 30.8835 31.0807C31.2192 31.3983 31.6366 31.5571 32.1358 31.5571C32.5804 31.5571 32.9479 31.4482 33.2383 31.2304C33.5378 31.0127 33.7283 30.7177 33.81 30.3457H35.8382C35.7384 30.872 35.5251 31.3439 35.1984 31.7613C34.8718 32.1787 34.4498 32.5054 33.9325 32.7414C33.4243 32.9773 32.8572 33.0953 32.231 33.0953C31.496 33.0953 30.8426 32.941 30.2709 32.6325C29.6992 32.3149 29.2546 31.8657 28.9369 31.2849C28.6193 30.7041 28.4605 30.019 28.4605 29.2295C28.4605 28.44 28.6193 27.7549 28.9369 27.1741C29.2546 26.5842 29.6992 26.135 30.2709 25.8265C30.8426 25.518 31.496 25.3637 32.231 25.3637C32.9752 25.3637 33.624 25.518 34.1775 25.8265C34.7402 26.135 35.1712 26.5616 35.4707 27.106C35.7792 27.6414 35.9335 28.254 35.9335 28.9436ZM34.0006 28.7531C34.0278 28.136 33.8645 27.6687 33.5106 27.351C33.1657 27.0334 32.7392 26.8746 32.231 26.8746C31.7138 26.8746 31.2782 27.0334 30.9243 27.351C30.5704 27.6687 30.3753 28.136 30.339 28.7531H34.0006ZM41.7471 23.2947C42.9177 23.2947 43.8887 23.5851 44.66 24.1659C45.4314 24.7376 45.9259 25.5134 46.1437 26.4935H44.1291C43.9386 26.0579 43.6346 25.7131 43.2171 25.459C42.8088 25.1958 42.3233 25.0642 41.7607 25.0642C41.2071 25.0642 40.7171 25.1913 40.2906 25.4454C39.8641 25.6995 39.5328 26.0624 39.2969 26.5343C39.061 27.0062 38.943 27.5598 38.943 28.195C38.943 29.2023 39.2107 29.9872 39.7461 30.5499C40.2906 31.1125 41.0302 31.3938 41.9648 31.3938C42.6545 31.3938 43.2444 31.1896 43.7344 30.7813C44.2335 30.3729 44.5557 29.8057 44.7008 29.0798H41.4476V27.705H46.3071V29.5562C46.1709 30.1914 45.9032 30.7767 45.504 31.3121C45.1137 31.8475 44.5965 32.2786 43.9522 32.6053C43.317 32.9229 42.5865 33.0817 41.7607 33.0817C40.8169 33.0817 39.982 32.8775 39.2561 32.4691C38.5392 32.0517 37.9811 31.4755 37.5818 30.7404C37.1916 29.9963 36.9965 29.1478 36.9965 28.195C36.9965 27.2421 37.1916 26.3982 37.5818 25.6632C37.9811 24.919 38.5392 24.3383 39.2561 23.9208C39.973 23.5034 40.8033 23.2947 41.7471 23.2947ZM52.2497 23.2539C53.1481 23.2539 53.9603 23.4626 54.6863 23.88C55.4213 24.2974 55.9976 24.8827 56.415 25.6359C56.8415 26.3801 57.0547 27.224 57.0547 28.1678C57.0547 29.1115 56.8415 29.96 56.415 30.7132C55.9976 31.4664 55.4213 32.0517 54.6863 32.4691C53.9603 32.8866 53.1481 33.0953 52.2497 33.0953C51.3513 33.0953 50.5346 32.8866 49.7996 32.4691C49.0736 32.0517 48.4974 31.4664 48.0709 30.7132C47.6534 29.96 47.4447 29.1115 47.4447 28.1678C47.4447 27.224 47.6534 26.3801 48.0709 25.6359C48.4974 24.8827 49.0736 24.2974 49.7996 23.88C50.5346 23.4626 51.3513 23.2539 52.2497 23.2539ZM52.2497 25.0234C51.6871 25.0234 51.1925 25.1504 50.766 25.4045C50.3395 25.6586 50.0038 26.0261 49.7587 26.5071C49.5228 26.979 49.4048 27.5325 49.4048 28.1678C49.4048 28.803 49.5228 29.3611 49.7587 29.842C50.0038 30.3139 50.3395 30.6769 50.766 30.931C51.1925 31.1851 51.6871 31.3121 52.2497 31.3121C52.8124 31.3121 53.3069 31.1851 53.7334 30.931C54.1599 30.6769 54.4912 30.3139 54.7271 29.842C54.9721 29.3611 55.0946 28.803 55.0946 28.1678C55.0946 27.5325 54.9721 26.979 54.7271 26.5071C54.4912 26.0261 54.1599 25.6586 53.7334 25.4045C53.3069 25.1504 52.8124 25.0234 52.2497 25.0234Z" fill="white"/>
<defs>
<linearGradient id="paint0_linear" x1="38.576" y1="180.88" x2="167.679" y2="113.728" gradientUnits="userSpaceOnUse">
<stop stop-color="#31A514"/>
<stop offset="1" stop-color="#32E9E9"/>
</linearGradient>
<clipPath id="clip0">
<rect width="41" height="39" fill="white" transform="translate(18 7)"/>
</clipPath>
</defs>
</svg>
