<svg width="36" height="34" viewBox="0 0 36 34" fill="none" xmlns="http://www.w3.org/2000/svg">
<path d="M31.5 19.157V6.4998C31.5 4.84521 30.1546 3.49978 28.5 3.49978H25.3711C25.1741 3.49978 24.9807 3.41997 24.8408 3.28005L22.7197 1.15894C22.2948 0.734107 21.7294 0.499756 21.1288 0.499756H14.871C14.2704 0.499756 13.705 0.734107 13.2802 1.15894L11.1591 3.28005C11.0192 3.41997 10.8258 3.49978 10.6288 3.49978H7.49988C5.84543 3.49978 4.5 4.84521 4.5 6.4998V19.1454C1.56466 20.3769 0 21.9601 0 23.7498C0 27.8251 7.67953 30.1531 15.4776 30.4616L13.7197 32.2195C13.4267 32.5125 13.4267 32.9871 13.7197 33.28C13.8662 33.4265 14.0581 33.4997 14.25 33.4997C14.4419 33.4997 14.6338 33.4265 14.7803 33.28L17.7803 30.28C18.0733 29.987 18.0733 29.5124 17.7803 29.2195L14.7803 26.2194C14.4873 25.9264 14.0127 25.9264 13.7198 26.2194C13.4268 26.5124 13.4268 26.987 13.7198 27.28L15.3998 28.9599C7.12132 28.6225 1.49998 26.0638 1.49998 23.7498C1.49998 22.7193 2.61731 21.6416 4.59977 20.7282C4.92736 22.0298 6.09792 22.9998 7.49995 22.9998H28.5C29.8981 22.9998 31.0655 22.035 31.3969 20.7389C33.3629 21.6462 34.5 22.7198 34.5 23.7498C34.5 25.6182 30.5113 28.0147 23.1731 28.7742C22.7607 28.8174 22.4612 29.1858 22.5037 29.5974C22.5439 29.9834 22.8698 30.2705 23.2493 30.2705C23.2749 30.2705 23.3013 30.269 23.3269 30.2668C31.0078 29.4715 36 26.9131 36 23.7498C36 21.96 34.4164 20.3812 31.5 19.157ZM30 19.9998C30 20.8267 29.3269 21.4998 28.5 21.4998H7.50002C6.67315 21.4998 6.00005 20.8267 6.00005 19.9998V6.4998C6.00005 5.67293 6.67315 4.99983 7.50002 4.99983H10.6289C11.2295 4.99983 11.7949 4.76547 12.2198 4.34065L14.3409 2.21953C14.4808 2.07961 14.6741 1.9998 14.8712 1.9998H21.129C21.326 1.9998 21.5194 2.07961 21.6593 2.21953L23.7804 4.34065C24.2052 4.76547 24.7706 4.99983 25.3712 4.99983H28.5001C29.327 4.99983 30.0001 5.67293 30.0001 6.4998V19.9998H30Z" fill="white"/>
</svg>
